<svg xmlns="http://www.w3.org/2000/svg" viewBox="0 0 512 512"><defs><linearGradient id="bg" x1="0" x2="1" y1="0" y2="1"><stop offset="0" stop-color="#0A2540"/><stop offset="1" stop-color="#123B6D"/></linearGradient><linearGradient id="green" x1="0" x2="1"><stop offset="0" stop-color="#42C96F"/><stop offset="1" stop-color="#2FB65D"/></linearGradient><linearGradient id="blue" x1="0" x2="1"><stop offset="0" stop-color="#1976F3"/><stop offset="1" stop-color="#0B5FD7"/></linearGradient></defs><rect x="32" y="32" width="448" height="448" rx="96" fill="url(#bg)"/><g transform="translate(136,80) scale(1.55)"><rect x="0" y="0" width="150" height="220" rx="32" fill="none" stroke="#FFFFFF" stroke-width="18"/><path d="M52 0h46c0 14-9 22-23 22S52 14 52 0Z" fill="#FFFFFF"/><rect x="45" y="115" width="24" height="58" rx="5" fill="url(#green)"/><rect x="78" y="88" width="24" height="85" rx="5" fill="url(#green)"/><rect x="111" y="58" width="24" height="115" rx="5" fill="url(#green)"/><path d="M-20 120 L76 205 L182 88 L151 134 L79 245 L20 190Z" fill="url(#blue)"/></g></svg>
