<svg xmlns="http://www.w3.org/2000/svg" viewBox="0 0 1200 360" role="img" aria-labelledby="title desc">
<title id="title">Poksol logo couleur</title><desc id="desc">Logo Poksol avec smartphone, graphique de croissance et chevron pocket.</desc>
<defs>
  <linearGradient id="blue" x1="0" x2="1" y1="0" y2="1"><stop offset="0" stop-color="#0A2540"/><stop offset="1" stop-color="#123B6D"/></linearGradient>
  <linearGradient id="digital" x1="0" x2="1"><stop offset="0" stop-color="#1976F3"/><stop offset="1" stop-color="#0B5FD7"/></linearGradient>
  <linearGradient id="green" x1="0" x2="1"><stop offset="0" stop-color="#42C96F"/><stop offset="1" stop-color="#2FB65D"/></linearGradient>
</defs>
<g transform="translate(70,38)">
  <rect x="0" y="0" width="150" height="220" rx="32" fill="none" stroke="url(#blue)" stroke-width="18"/>
  <path d="M52 0h46c0 14-9 22-23 22S52 14 52 0Z" fill="#0A2540"/>
  <rect x="45" y="115" width="24" height="58" rx="5" fill="url(#green)"/>
  <rect x="78" y="88" width="24" height="85" rx="5" fill="url(#green)"/>
  <rect x="111" y="58" width="24" height="115" rx="5" fill="url(#green)"/>
  <path d="M-20 120 L76 205 L182 88 L151 134 L79 245 L20 190Z" fill="url(#digital)"/>
</g>
<g transform="translate(290,105)">
  <text x="0" y="95" font-family="Montserrat, Poppins, Arial, sans-serif" font-size="105" font-weight="800" letter-spacing="2"><tspan fill="#0A2540">POK</tspan><tspan fill="#1976F3">SOL</tspan></text>
  <text x="5" y="155" font-family="Inter, Arial, sans-serif" font-size="28" font-weight="700" letter-spacing="7" fill="#0A2540">YOUR BUSINESS. IN YOUR POCKET.</text>
</g>
</svg>
